<svg width="320" height="180" viewBox="0 0 320 180" fill="none" xmlns="http://www.w3.org/2000/svg">
  <rect width="320" height="180" fill="transparent"/>
  <circle cx="82" cy="128" r="30" fill="#111827"/>
  <circle cx="82" cy="128" r="16" fill="#F3F4F6"/>
  <circle cx="238" cy="128" r="30" fill="#111827"/>
  <circle cx="238" cy="128" r="16" fill="#F3F4F6"/>
  <path d="M103 127H137L163 84H204L226 127" stroke="#111827" stroke-width="12" stroke-linecap="round" stroke-linejoin="round"/>
  <path d="M140 126L113 93H88" stroke="#111827" stroke-width="10" stroke-linecap="round" stroke-linejoin="round"/>
  <path d="M166 83L153 59H132" stroke="#111827" stroke-width="10" stroke-linecap="round" stroke-linejoin="round"/>
  <path d="M201 84L224 58H251" stroke="#111827" stroke-width="10" stroke-linecap="round" stroke-linejoin="round"/>
  <path d="M133 65H197C207 65 216 72 219 82L225 102H148L133 65Z" fill="#F97316"/>
  <path d="M151 54H198C206 54 213 59 216 66L219 74H145L151 54Z" fill="#FB923C"/>
  <path d="M213 55L245 44" stroke="#111827" stroke-width="8" stroke-linecap="round"/>
  <path d="M244 44H263" stroke="#111827" stroke-width="7" stroke-linecap="round"/>
  <path d="M109 93L78 93" stroke="#111827" stroke-width="8" stroke-linecap="round"/>
</svg>
